<svg width="42" height="42" viewBox="0 0 42 42" fill="none" xmlns="http://www.w3.org/2000/svg">
<path d="M9.6775 8.75L8.75 5.25H2.1875C1.72337 5.25 1.27825 5.43437 0.950063 5.76256C0.621874 6.09075 0.4375 6.53587 0.4375 7C0.4375 7.46413 0.621874 7.90925 0.950063 8.23744C1.27825 8.56563 1.72337 8.75 2.1875 8.75H6.0725L11.725 31.5H35V28H14.455L13.8775 25.655L36.75 21.2975V8.75H9.6775ZM33.25 18.41L13.0375 22.2425L10.5 12.25H33.25V18.41ZM12.25 33.25C11.7308 33.25 11.2233 33.404 10.7916 33.6924C10.3599 33.9808 10.0235 34.3908 9.82482 34.8705C9.62614 35.3501 9.57415 35.8779 9.67544 36.3871C9.77672 36.8963 10.0267 37.364 10.3938 37.7312C10.761 38.0983 11.2287 38.3483 11.7379 38.4496C12.2471 38.5508 12.7749 38.4989 13.2545 38.3002C13.7342 38.1015 14.1442 37.765 14.4326 37.3334C14.721 36.9017 14.875 36.3942 14.875 35.875C14.875 35.1788 14.5984 34.5111 14.1062 34.0188C13.6139 33.5266 12.9462 33.25 12.25 33.25ZM33.25 33.25C32.7308 33.25 32.2233 33.404 31.7916 33.6924C31.3599 33.9808 31.0235 34.3908 30.8248 34.8705C30.6261 35.3501 30.5742 35.8779 30.6754 36.3871C30.7767 36.8963 31.0267 37.364 31.3938 37.7312C31.761 38.0983 32.2287 38.3483 32.7379 38.4496C33.2471 38.5508 33.7749 38.4989 34.2545 38.3002C34.7342 38.1015 35.1442 37.765 35.4326 37.3334C35.721 36.9017 35.875 36.3942 35.875 35.875C35.875 35.1788 35.5984 34.5111 35.1062 34.0188C34.6139 33.5266 33.9462 33.25 33.25 33.25Z" fill="white"/>
</svg>
