<svg width="190" height="54" viewBox="0 0 190 54" fill="none" xmlns="http://www.w3.org/2000/svg">
<g clip-path="url(#clip0)">
<path d="M64.1149 28.1293C64.0861 27.1414 64.266 26.1585 64.6426 25.2458C65.0191 24.3331 65.5839 23.5114 66.2994 22.8349C67.4921 21.7007 69.0099 20.9746 70.6364 20.76C72.2629 20.5453 73.9152 20.8532 75.3578 21.6396C76.4468 22.2583 77.346 23.1664 77.9573 24.2648L75.7728 25.8267C75.3681 25.0937 74.7757 24.4833 74.0573 24.059C73.3389 23.6347 72.5207 23.412 71.6878 23.4142C71.0848 23.4037 70.486 23.5181 69.9286 23.7502C69.3712 23.9823 68.8671 24.3272 68.4475 24.7635C68.0165 25.2119 67.6792 25.7427 67.4553 26.3245C67.2314 26.9064 67.1256 27.5276 67.1441 28.1513C67.1233 28.7742 67.228 29.3949 67.4521 29.976C67.6761 30.557 68.0147 31.0862 68.4475 31.5318C68.8762 31.9688 69.3897 32.3121 69.9559 32.5405C70.5222 32.7688 71.1291 32.8773 71.7388 32.8591C72.5716 32.8612 73.3899 32.6386 74.1083 32.2143C74.8267 31.79 75.4191 31.1796 75.8238 30.4465L78.0083 32.0084C77.4061 33.1113 76.5077 34.021 75.416 34.6336C74.2823 35.2648 73.005 35.5883 71.7097 35.5723C70.7134 35.6096 69.7202 35.4386 68.7927 35.0701C67.8653 34.7015 67.0238 34.1435 66.3213 33.431C65.6004 32.7587 65.0321 31.9377 64.6551 31.024C64.2781 30.1103 64.1013 29.1254 64.1368 28.1366" fill="white"/>
<path d="M90.0011 20.9576H99.7585V35.3082H96.8458V23.6121H92.7681C92.7704 26.0236 92.5633 28.4307 92.1492 30.8058C91.9833 32.1333 91.4819 33.3958 90.6928 34.4723C90.3708 34.819 89.9803 35.0941 89.5464 35.2797C89.1125 35.4654 88.6448 35.5575 88.1734 35.5502C87.7534 35.5518 87.3366 35.4773 86.9428 35.3302V32.8077C87.1349 32.8434 87.3302 32.8582 87.5253 32.8517C88.3919 32.8517 88.9817 32.1184 89.3749 30.6958C89.826 28.3629 90.031 25.9885 89.9865 23.6121L90.0011 20.9576Z" fill="white"/>
<path d="M120.147 20.9576H123.256L118.4 31.7004C117.934 32.7891 117.275 33.7831 116.455 34.6336C115.669 35.2546 114.687 35.5696 113.688 35.5209C113.141 35.5185 112.596 35.437 112.072 35.2789V32.8077C112.451 32.8529 112.833 32.8749 113.215 32.8737C113.598 32.893 113.981 32.82 114.33 32.6605C114.68 32.5011 114.986 32.2599 115.225 31.9571L109.909 20.9576H113.171L116.812 28.7599L120.147 20.9576Z" fill="white"/>
<path d="M144.57 35.3082H141.264L138.242 30.5491L135.22 35.3082H131.892L136.625 28.0046L132.176 20.9576H135.497L138.242 25.4821L140.965 20.9576H144.264L139.88 28.0046L144.57 35.3082Z" fill="white"/>
<path d="M165.403 28.1293C165.423 27.5064 165.318 26.8858 165.094 26.3049C164.87 25.7239 164.532 25.1946 164.099 24.7488C163.219 23.8956 162.044 23.419 160.823 23.419C159.601 23.419 158.426 23.8956 157.546 24.7488C157.114 25.1961 156.776 25.7268 156.553 26.3091C156.331 26.8914 156.227 27.513 156.25 28.1366C156.227 28.7613 156.33 29.3841 156.553 29.9676C156.776 30.5511 157.114 31.0831 157.546 31.5318C158.427 32.3833 159.601 32.8587 160.823 32.8587C162.044 32.8587 163.218 32.3833 164.099 31.5318C164.534 31.0845 164.874 30.5528 165.098 29.9692C165.322 29.3855 165.425 28.762 165.403 28.1366V28.1293ZM153.25 28.1366C153.222 27.1511 153.403 26.1709 153.78 25.2608C154.156 24.3507 154.72 23.5314 155.434 22.8569C156.128 22.1438 156.961 21.5838 157.881 21.2126C158.801 20.8415 159.788 20.6672 160.779 20.701C161.772 20.67 162.762 20.8454 163.685 21.2163C164.608 21.5872 165.446 22.1457 166.145 22.8569C166.868 23.5269 167.441 24.3443 167.825 25.2548C168.209 26.1652 168.396 27.1476 168.374 28.1366C168.397 29.1267 168.21 30.1105 167.826 31.0222C167.442 31.9339 166.869 32.7526 166.145 33.4237C165.445 34.1339 164.608 34.6913 163.684 35.0609C162.761 35.4306 161.772 35.6047 160.779 35.5722C159.789 35.6069 158.802 35.4339 157.882 35.064C156.962 34.6941 156.128 34.1355 155.434 33.4237C154.719 32.7472 154.154 31.9254 153.777 31.0127C153.401 30.1 153.221 29.1172 153.25 28.1293V28.1366Z" fill="white"/>
<path d="M187.138 30.9819C187.149 30.735 187.105 30.4888 187.011 30.2607C186.917 30.0326 186.774 29.8282 186.592 29.6619C186.183 29.325 185.664 29.1526 185.136 29.178H181.808V32.7858H185.136C185.662 32.8091 186.18 32.6398 186.592 32.3091C186.775 32.1427 186.919 31.9372 187.014 31.7076C187.108 31.478 187.151 31.2301 187.138 30.9819V30.9819ZM183.781 23.4656H181.772V26.7654H183.781C184.276 26.798 184.765 26.6408 185.15 26.3254C185.316 26.1719 185.446 25.9829 185.531 25.7724C185.615 25.5618 185.652 25.3348 185.638 25.1082C185.65 24.885 185.612 24.662 185.528 24.4553C185.443 24.2486 185.314 24.0634 185.15 23.9129C184.765 23.5981 184.277 23.4387 183.781 23.4656V23.4656ZM190 31.0772C190.017 31.6488 189.907 32.2171 189.679 32.7409C189.452 33.2647 189.111 33.7309 188.682 34.1057C187.748 34.9173 186.543 35.3418 185.31 35.2937H178.968V20.9577H184.022C185.205 20.9099 186.364 21.3101 187.269 22.0796C187.675 22.4325 187.998 22.8711 188.216 23.3641C188.433 23.8572 188.54 24.3926 188.529 24.9322C188.546 25.4134 188.461 25.8927 188.279 26.3379C188.097 26.7832 187.822 27.1839 187.473 27.5134C188.235 27.732 188.901 28.2056 189.36 28.856C189.819 29.5065 190.045 30.295 190 31.0919V31.0772Z" fill="white"/>
<path d="M67.6246 47.8696V46.909H64.1731V42.4212H64.8867V46.2637H67.0494V42.4212H67.763V46.2637H68.3236V47.8696H67.6246Z" fill="white"/>
<path d="M72.9111 42.3479H73.1587V46.909H72.4451V43.7779L69.6853 46.9824H69.4377V42.4213H70.1513V45.5524L72.9111 42.3479Z" fill="white"/>
<path d="M76.4573 45.8604V43.4186C76.0836 43.4024 75.7166 43.5221 75.4234 43.7559C75.2972 43.8665 75.1976 44.0045 75.132 44.1594C75.0665 44.3144 75.0366 44.4823 75.0447 44.6505C75.0352 44.8161 75.0638 44.9816 75.1282 45.1342C75.1926 45.2868 75.2911 45.4224 75.4161 45.5305C75.7147 45.7587 76.0828 45.8754 76.4573 45.8604V45.8604ZM78.6418 44.6432C78.651 44.4748 78.6217 44.3065 78.556 44.1514C78.4904 43.9963 78.3902 43.8585 78.2632 43.7485C77.964 43.5214 77.5963 43.4048 77.2219 43.4186V45.8604C77.595 45.8814 77.9629 45.764 78.2559 45.5305C78.3841 45.4228 78.4856 45.2866 78.5526 45.1326C78.6196 44.9786 78.6501 44.8111 78.6418 44.6432V44.6432ZM77.1855 46.4984V47.0484H76.4573V46.4984C75.8985 46.5098 75.353 46.3258 74.9136 45.9778C74.723 45.8122 74.5717 45.6057 74.4709 45.3735C74.3701 45.1412 74.3223 44.8891 74.3311 44.6358C74.3208 44.3844 74.3679 44.134 74.4689 43.9039C74.5699 43.6738 74.7221 43.4701 74.9136 43.3086C75.3522 42.9598 75.8988 42.7781 76.4573 42.7953V42.2893H77.1855V42.7953C77.7439 42.7787 78.2904 42.9604 78.7292 43.3086C78.924 43.4694 79.0787 43.6738 79.1811 43.9055C79.2835 44.1372 79.3307 44.3898 79.319 44.6432C79.3285 44.8962 79.2803 45.1481 79.178 45.3794C79.0758 45.6108 78.9222 45.8155 78.7292 45.9778C78.2893 46.3247 77.7442 46.5086 77.1855 46.4984Z" fill="white"/>
<path d="M81.2487 44.5405H82.1516C82.3617 44.5532 82.5684 44.482 82.7269 44.3425C82.862 44.196 82.9371 44.0034 82.9371 43.8035C82.9371 43.6036 82.862 43.411 82.7269 43.2645C82.5684 43.125 82.3617 43.0538 82.1516 43.0665H81.2487V44.5405ZM80.5205 46.909V42.4286H82.1443C82.5456 42.4103 82.9388 42.5466 83.2439 42.8099C83.38 42.9349 83.4876 43.0881 83.5592 43.259C83.6309 43.4299 83.6649 43.6144 83.6589 43.7998C83.665 43.9859 83.6303 44.1711 83.5573 44.3422C83.4843 44.5133 83.3748 44.6661 83.2366 44.7898C82.936 45.0565 82.5446 45.1958 82.1443 45.1784H81.2341V46.931L80.5205 46.909Z" fill="white"/>
<path d="M88.5084 44.6578C88.5145 44.4412 88.477 44.2256 88.3981 44.024C88.3193 43.8223 88.2007 43.6388 88.0496 43.4846C87.9034 43.3302 87.7269 43.2081 87.5314 43.1261C87.3358 43.044 87.1255 43.0038 86.9137 43.0079C86.7003 43.0034 86.4883 43.0427 86.2905 43.1234C86.0927 43.2041 85.9133 43.3245 85.7632 43.4772C85.6138 43.6339 85.497 43.8191 85.4195 44.0218C85.342 44.2245 85.3053 44.4407 85.3117 44.6578C85.305 44.8772 85.3414 45.0957 85.4189 45.3009C85.4964 45.506 85.6134 45.6937 85.7632 45.8531C86.0691 46.1532 86.4793 46.3212 86.9064 46.3212C87.3335 46.3212 87.7437 46.1532 88.0496 45.8531C88.201 45.6945 88.3196 45.5071 88.3983 45.3019C88.4771 45.0967 88.5145 44.8778 88.5084 44.6578ZM84.569 44.6578C84.563 44.3511 84.6209 44.0465 84.7387 43.7636C84.8566 43.4808 85.0319 43.2258 85.2535 43.0152C85.4685 42.7949 85.7262 42.6214 86.0105 42.5053C86.2948 42.3893 86.5997 42.3332 86.9064 42.3406C87.2129 42.3345 87.5175 42.3912 87.8016 42.5072C88.0857 42.6231 88.3435 42.796 88.5593 43.0152C88.785 43.2226 88.9631 43.4769 89.0813 43.7606C89.1995 44.0442 89.2549 44.3504 89.2438 44.6578C89.2545 44.9663 89.1989 45.2734 89.0808 45.5582C88.9626 45.843 88.7848 46.0987 88.5593 46.3077C88.1126 46.7359 87.5195 46.9747 86.9027 46.9747C86.286 46.9747 85.6929 46.7359 85.2462 46.3077C85.026 46.0965 84.852 45.8413 84.7354 45.5584C84.6188 45.2756 84.5621 44.9713 84.569 44.6652V44.6578Z" fill="white"/>
<path d="M93.1032 45.5817C93.1071 45.4859 93.0903 45.3903 93.0538 45.3016C93.0174 45.213 92.9621 45.1334 92.892 45.0684C92.7299 44.9368 92.5245 44.8714 92.3167 44.8851H91.1735V46.2784H92.3167C92.5277 46.2898 92.7353 46.2218 92.8993 46.0877C92.9668 46.0226 93.0198 45.9439 93.055 45.8567C93.0901 45.7695 93.1065 45.6758 93.1032 45.5817V45.5817ZM91.9599 43.0592H91.1735V44.2691H91.9599C92.145 44.2803 92.3273 44.22 92.4697 44.1005C92.5306 44.0438 92.5785 43.9744 92.6099 43.8971C92.6414 43.8199 92.6556 43.7366 92.6517 43.6532C92.6555 43.5708 92.6412 43.4887 92.6097 43.4126C92.5783 43.3365 92.5304 43.2684 92.4697 43.2132C92.3251 43.0989 92.1431 43.0439 91.9599 43.0592V43.0592ZM93.824 45.6037C93.8298 45.7802 93.7969 45.9558 93.7277 46.118C93.6585 46.2802 93.5546 46.4251 93.4235 46.5424C93.1376 46.7974 92.7637 46.929 92.3823 46.909H90.4745V42.4286H92.0328C92.3853 42.4122 92.731 42.53 93.0012 42.7585C93.1197 42.8683 93.2134 43.0023 93.2762 43.1515C93.339 43.3008 93.3694 43.4618 93.3653 43.6238C93.3697 43.7834 93.3387 43.9419 93.2744 44.0878C93.2102 44.2337 93.1143 44.3633 92.9939 44.4671C93.2385 44.5378 93.4533 44.6872 93.6056 44.8924C93.7541 45.0989 93.8309 45.3489 93.824 45.6037V45.6037Z" fill="white"/>
<path d="M98.9721 46.931V42.4286H99.7003V46.931H98.9721ZM95.7245 46.2931H96.6129C96.8364 46.3044 97.0555 46.2282 97.2245 46.0804C97.2988 46.0074 97.3567 45.9193 97.3944 45.8219C97.432 45.7245 97.4486 45.6201 97.443 45.5158C97.4486 45.4114 97.432 45.307 97.3944 45.2097C97.3567 45.1123 97.2988 45.0241 97.2245 44.9511C97.0544 44.806 96.8354 44.7325 96.6129 44.7458H95.7245V46.2931ZM94.9963 46.931V42.4286H95.7245V44.0858H96.6201C97.0312 44.0701 97.4334 44.2086 97.7488 44.4745C97.8887 44.6035 97.9994 44.7613 98.0735 44.9371C98.1476 45.113 98.1834 45.3028 98.1784 45.4938C98.1864 45.6851 98.152 45.8759 98.0777 46.0522C98.0034 46.2285 97.891 46.3859 97.7488 46.5131C97.4374 46.7867 97.033 46.9286 96.6201 46.909L94.9963 46.931Z" fill="white"/>
<path d="M101.179 46.909V42.4212H104.113V43.0665H101.899V44.2178H103.56V44.8411H101.899V46.2637H104.193V46.909H101.179Z" fill="white"/>
<path d="M108.897 44.6651C108.887 44.3579 108.943 44.0522 109.061 43.7688C109.18 43.4853 109.357 43.2308 109.581 43.0225C109.798 42.8027 110.057 42.6296 110.343 42.5136C110.628 42.3976 110.934 42.3413 111.242 42.3479C111.63 42.3461 112.013 42.4419 112.356 42.6266C112.677 42.8004 112.95 43.0525 113.149 43.3599L112.611 43.7632C112.484 43.5538 112.311 43.3762 112.106 43.2437C111.901 43.1112 111.669 43.0273 111.427 42.9984C111.185 42.9695 110.94 42.9962 110.71 43.0766C110.479 43.157 110.27 43.2889 110.098 43.4625C109.947 43.6179 109.828 43.8026 109.749 44.0055C109.67 44.2085 109.633 44.4253 109.64 44.6431C109.633 44.862 109.67 45.0801 109.749 45.2842C109.828 45.4883 109.946 45.6743 110.098 45.8311C110.271 46.0033 110.48 46.1341 110.71 46.2137C110.94 46.2933 111.185 46.3196 111.426 46.2907C111.668 46.2618 111.9 46.1785 112.105 46.0468C112.31 45.9152 112.483 45.7387 112.611 45.5304L113.149 45.9264C112.953 46.2365 112.679 46.4893 112.356 46.6597C112.013 46.8436 111.63 46.937 111.242 46.931C110.934 46.9408 110.628 46.8866 110.342 46.7718C110.057 46.6569 109.798 46.484 109.581 46.2637C109.359 46.0523 109.183 45.7962 109.065 45.5119C108.947 45.2277 108.89 44.9217 108.897 44.6138" fill="white"/>
<path d="M114.868 42.4286H117.781V46.931H117.052V43.0739H115.545C115.53 43.8598 115.462 44.6438 115.341 45.4204C115.288 45.8415 115.141 46.245 114.912 46.601C114.817 46.716 114.697 46.8085 114.563 46.8719C114.428 46.9352 114.281 46.9679 114.133 46.9677C114.021 46.97 113.909 46.9501 113.805 46.909V46.2931H113.994C114.293 46.2931 114.504 46.0437 114.635 45.5598C114.788 44.7724 114.861 43.9714 114.853 43.1692L114.868 42.4286Z" fill="white"/>
<path d="M122.23 42.4286H122.958L121.392 45.8164C121.255 46.1491 121.06 46.4546 120.817 46.7184C120.594 46.9022 120.311 46.9963 120.023 46.9824C119.877 46.9798 119.732 46.9551 119.594 46.9091V46.2931C119.71 46.3018 119.827 46.3018 119.943 46.2931C120.076 46.2968 120.207 46.264 120.323 46.1981C120.438 46.1321 120.533 46.0357 120.598 45.9191L118.88 42.4066H119.681L120.992 45.1051L122.23 42.4286Z" fill="white"/>
<path d="M127.436 46.909H126.62L125.535 45.2371L124.465 46.909H123.642L125.15 44.6211L123.737 42.4212H124.56L125.543 44.0052L126.518 42.4212H127.334L125.95 44.6211L127.436 46.909Z" fill="white"/>
<path d="M132.023 44.6578C132.03 44.4412 131.992 44.2256 131.913 44.024C131.834 43.8223 131.716 43.6388 131.565 43.4846C131.261 43.181 130.85 43.0106 130.422 43.0106C129.993 43.0106 129.582 43.181 129.278 43.4846C129.127 43.64 129.008 43.8247 128.929 44.0276C128.85 44.2305 128.813 44.4474 128.82 44.6652C128.812 44.8852 128.849 45.1046 128.928 45.3099C129.007 45.5153 129.126 45.7026 129.278 45.8604C129.425 46.0155 129.603 46.1375 129.8 46.2184C129.997 46.2993 130.209 46.3372 130.422 46.3298C130.634 46.3354 130.845 46.2966 131.042 46.2158C131.239 46.135 131.417 46.014 131.565 45.8604C131.716 45.7018 131.835 45.5145 131.913 45.3093C131.992 45.104 132.03 44.8851 132.023 44.6652V44.6578ZM128.084 44.6652C128.073 44.3584 128.128 44.0529 128.245 43.7694C128.362 43.486 128.538 43.2312 128.761 43.0226C128.977 42.8026 129.234 42.6293 129.519 42.5133C129.803 42.3973 130.108 42.341 130.414 42.348C130.722 42.3426 131.027 42.3995 131.312 42.5154C131.598 42.6313 131.857 42.8038 132.074 43.0226C132.299 43.2309 132.476 43.4854 132.594 43.7688C132.712 44.0522 132.769 44.3579 132.759 44.6652C132.766 44.9731 132.709 45.2791 132.591 45.5633C132.473 45.8475 132.297 46.1037 132.074 46.3151C131.857 46.5343 131.598 46.7065 131.313 46.8213C131.027 46.936 130.722 46.9909 130.414 46.9824C130.108 46.9943 129.802 46.941 129.517 46.8261C129.232 46.7111 128.975 46.537 128.761 46.3151C128.54 46.103 128.366 45.8466 128.249 45.5624C128.132 45.2782 128.076 44.9726 128.084 44.6652V44.6652Z" fill="white"/>
<path d="M136.611 45.5817C136.616 45.4864 136.6 45.3912 136.565 45.3026C136.53 45.2139 136.476 45.1341 136.407 45.0684C136.245 44.9375 136.04 44.8721 135.832 44.8851H134.71V46.2784H135.861C136.07 46.29 136.275 46.222 136.436 46.0877C136.505 46.0235 136.559 45.9449 136.594 45.8575C136.629 45.7701 136.645 45.676 136.64 45.5817H136.611ZM135.504 43.0592H134.71V44.2691H135.504C135.687 44.2784 135.866 44.2182 136.007 44.1005C136.069 44.0448 136.117 43.9756 136.149 43.898C136.181 43.8205 136.194 43.7368 136.189 43.6532C136.192 43.5715 136.179 43.49 136.149 43.4141C136.118 43.3382 136.073 43.2697 136.014 43.2132C135.86 43.0957 135.667 43.0408 135.475 43.0592H135.504ZM137.368 45.6037C137.373 45.78 137.339 45.9551 137.27 46.1171C137.201 46.2791 137.098 46.4242 136.968 46.5424C136.677 46.7945 136.302 46.9256 135.919 46.909H133.982V42.4286H135.541C135.893 42.4122 136.239 42.53 136.509 42.7585C136.63 42.8667 136.726 43.0002 136.79 43.1497C136.854 43.2992 136.885 43.461 136.88 43.6238C136.885 43.7834 136.854 43.9419 136.79 44.0878C136.725 44.2337 136.629 44.3633 136.509 44.4671C136.751 44.5398 136.963 44.6889 137.113 44.8924C137.268 45.0964 137.347 45.3476 137.339 45.6037H137.368Z" fill="white"/>
<path d="M142.48 46.931V42.4286H143.208V46.931H142.48ZM139.24 46.2931H140.128C140.349 46.3048 140.567 46.2284 140.733 46.0804C140.808 46.0081 140.867 45.9202 140.906 45.8228C140.945 45.7254 140.963 45.6207 140.958 45.5158C140.963 45.4109 140.945 45.3062 140.906 45.2088C140.867 45.1113 140.808 45.0235 140.733 44.9511C140.565 44.8058 140.348 44.7321 140.128 44.7458H139.24V46.2931ZM138.512 46.931V42.4286H139.24V44.0858H140.135C140.544 44.0698 140.944 44.2085 141.257 44.4745C141.394 44.606 141.503 44.7641 141.577 44.9393C141.652 45.1145 141.69 45.3032 141.69 45.4938C141.69 45.6844 141.652 45.873 141.577 46.0482C141.503 46.2234 141.394 46.3816 141.257 46.5131C140.944 46.7848 140.541 46.9263 140.128 46.909L138.512 46.931Z" fill="white"/>
<path d="M144.694 46.909V42.4212H147.621V43.0665H145.407V44.2178H147.075V44.8411H145.407V46.2637H147.701V46.909H144.694Z" fill="white"/>
<path d="M155.099 45.5451L154.371 43.6899L153.643 45.5451H155.099ZM155.667 46.909L155.354 46.1757H153.352L153.031 46.909H152.303L154.269 42.3479H154.509L156.475 46.909H155.667Z" fill="white"/>
<path d="M157.516 46.909V42.4212H161.121V46.909H160.407V43.0665H158.23V46.909H157.516Z" fill="white"/>
<path d="M162.614 46.909V42.4212H166.218V46.909H165.504V43.0665H163.327V46.909H162.614Z" fill="white"/>
<path d="M170.128 45.5451L169.4 43.6899L168.672 45.5451H170.128ZM170.704 46.909L170.391 46.1977H168.388L168.075 46.931H167.31L169.276 42.3699H169.517L171.483 46.931L170.704 46.909Z" fill="white"/>
<path d="M173.303 44.5405H174.199C174.411 44.5535 174.62 44.4825 174.781 44.3425C174.914 44.1932 174.985 43.9991 174.981 43.7992C174.977 43.5992 174.898 43.4082 174.76 43.2645C174.598 43.1245 174.389 43.0535 174.177 43.0665H173.303V44.5405ZM172.575 46.931V42.4286H174.199C174.598 42.4084 174.99 42.5451 175.291 42.8099C175.425 42.9373 175.531 43.0908 175.604 43.261C175.676 43.4312 175.714 43.6146 175.714 43.7998C175.714 43.9851 175.676 44.1684 175.604 44.3386C175.531 44.5088 175.425 44.6623 175.291 44.7898C174.989 45.0545 174.599 45.1935 174.199 45.1784H173.303V46.931H172.575Z" fill="white"/>
<path d="M178.728 45.5451L178 43.6899L177.272 45.5451H178.728ZM179.303 46.909L178.983 46.1757H176.98L176.667 46.909H175.903L177.869 42.3479H178.109L180.075 46.931L179.303 46.909Z" fill="white"/>
<path d="M181.692 46.909V43.0665H180.192V42.4212H183.905V43.0665H182.405V46.909H181.692Z" fill="white"/>
<path d="M188.908 46.931V42.4286H189.636V46.931H188.908ZM185.682 46.2711H186.57C186.794 46.2824 187.013 46.2062 187.182 46.0584C187.256 45.9854 187.314 45.8973 187.352 45.7999C187.39 45.7025 187.406 45.5981 187.4 45.4938C187.406 45.3894 187.39 45.285 187.352 45.1877C187.314 45.0903 187.256 45.0021 187.182 44.9291C187.012 44.784 186.793 44.7105 186.57 44.7238H185.682V46.2711ZM184.954 46.931V42.4286H185.682V44.0858H186.578C186.989 44.0701 187.391 44.2086 187.706 44.4745C187.847 44.6026 187.959 44.7602 188.033 44.9363C188.107 45.1123 188.142 45.3026 188.136 45.4938C188.144 45.6851 188.109 45.8759 188.035 46.0522C187.961 46.2285 187.849 46.3859 187.706 46.5131C187.395 46.7867 186.99 46.9286 186.578 46.909L184.954 46.931Z" fill="white"/>
<path d="M66.5398 12.1947H68.6005V8.68957H66.9912C67.0356 9.87512 66.883 11.0598 66.5398 12.1947V12.1947ZM70.3117 12.1947H71.2364V15.1279H69.5252V13.742H65.8844V15.1572H64.166V12.2241H64.7121C65.149 11.8819 65.3674 10.6255 65.3674 8.45491V7.13498H70.3117V12.1947Z" fill="white"/>
<path d="M80.666 10.4422C80.6743 10.1971 80.6328 9.95294 80.5438 9.72467C80.4549 9.49641 80.3206 9.28889 80.149 9.1149C79.9831 8.94515 79.7845 8.81138 79.5653 8.72184C79.3462 8.6323 79.1112 8.58888 78.8747 8.59426C78.6353 8.58621 78.3968 8.6276 78.1739 8.71588C77.951 8.80415 77.7484 8.93745 77.5786 9.10756C77.4118 9.28548 77.282 9.49523 77.197 9.72444C77.112 9.95365 77.0733 10.1977 77.0834 10.4422C77.0668 10.9377 77.2447 11.4198 77.5786 11.7841C77.7504 11.9505 77.9536 12.0804 78.1763 12.1661C78.399 12.2518 78.6365 12.2914 78.8747 12.2827C79.112 12.291 79.3483 12.2496 79.5689 12.1612C79.7895 12.0729 79.9895 11.9395 80.1563 11.7694C80.3262 11.5946 80.459 11.3867 80.5466 11.1586C80.6342 10.9304 80.6749 10.6866 80.666 10.4422ZM75.3358 10.4422C75.3212 9.98563 75.4055 9.53137 75.5828 9.11095C75.7601 8.69052 76.0262 8.31402 76.3626 8.00762C77.0438 7.37162 77.9385 7.01825 78.8674 7.01825C79.7964 7.01825 80.6911 7.37162 81.3723 8.00762C81.7121 8.31203 81.9815 8.68781 82.1614 9.10845C82.3413 9.5291 82.4274 9.98437 82.4136 10.4422C82.4279 10.9 82.342 11.3555 82.1621 11.7762C81.9822 12.1969 81.7125 12.5726 81.3723 12.8767C80.6899 13.5132 79.794 13.8668 78.8638 13.8668C77.9336 13.8668 77.0377 13.5132 76.3553 12.8767C76.0206 12.5693 75.7561 12.1925 75.5801 11.7722C75.4041 11.3518 75.3208 10.8981 75.3358 10.4422V10.4422Z" fill="white"/>
<path d="M93.3508 13.742H91.3265L88.8289 10.4495V13.742H87.1177V7.13498H88.8289V10.1268L90.9988 7.13498H92.9867L90.7294 10.2808L93.3508 13.742Z" fill="white"/>
<path d="M99.1689 13.742V8.68957H97.2028V7.13498H102.853V8.68957H100.88V13.742H99.1689Z" fill="white"/>
<path d="M112.232 10.4422C112.24 10.1971 112.199 9.95294 112.11 9.72467C112.021 9.49641 111.887 9.28889 111.715 9.1149C111.55 8.94444 111.351 8.81021 111.132 8.72062C110.913 8.63103 110.677 8.58801 110.441 8.59426C110.201 8.58621 109.963 8.6276 109.74 8.71588C109.517 8.80415 109.314 8.93745 109.145 9.10756C108.978 9.28548 108.848 9.49523 108.763 9.72444C108.678 9.95365 108.639 10.1977 108.649 10.4422C108.633 10.9377 108.811 11.4198 109.145 11.7841C109.316 11.9505 109.52 12.0804 109.742 12.1661C109.965 12.2518 110.203 12.2914 110.441 12.2827C110.678 12.291 110.914 12.2496 111.135 12.1612C111.355 12.0729 111.555 11.9395 111.722 11.7694C111.893 11.5953 112.027 11.3876 112.114 11.1593C112.202 10.9309 112.242 10.6868 112.232 10.4422V10.4422ZM106.902 10.4422C106.887 9.98563 106.972 9.53137 107.149 9.11095C107.326 8.69052 107.592 8.31402 107.929 8.00762C108.61 7.37162 109.505 7.01825 110.433 7.01825C111.362 7.01825 112.257 7.37162 112.938 8.00762C113.278 8.31203 113.548 8.68781 113.727 9.10845C113.907 9.5291 113.993 9.98437 113.98 10.4422C113.994 10.9 113.908 11.3555 113.728 11.7762C113.548 12.1969 113.279 12.5726 112.938 12.8767C112.256 13.5132 111.36 13.8668 110.43 13.8668C109.5 13.8668 108.604 13.5132 107.921 12.8767C107.587 12.5693 107.322 12.1925 107.146 11.7722C106.97 11.3518 106.887 10.8981 106.902 10.4422V10.4422Z" fill="white"/>
<path d="M120.395 10.1929H121.269C121.374 10.1979 121.48 10.1809 121.579 10.1431C121.678 10.1052 121.768 10.0473 121.844 9.97286C121.917 9.89921 121.973 9.81078 122.01 9.71343C122.046 9.61608 122.062 9.51204 122.055 9.40822C122.061 9.30561 122.045 9.20298 122.008 9.10697C121.972 9.01096 121.916 8.92373 121.844 8.85092C121.767 8.7778 121.677 8.72121 121.578 8.68464C121.479 8.64806 121.374 8.63228 121.269 8.63826H120.395V10.1929ZM118.691 13.742V7.14233H121.269C121.931 7.11616 122.58 7.33824 123.089 7.76564C123.325 7.96834 123.513 8.22179 123.639 8.50732C123.765 8.79286 123.826 9.10322 123.817 9.41556C123.825 9.72667 123.763 10.0356 123.638 10.3198C123.512 10.604 123.324 10.8562 123.089 11.0581C122.584 11.4897 121.938 11.7171 121.276 11.6961H120.409V13.7493L118.691 13.742Z" fill="white"/>
<path d="M5.35203 25.8928C5.46495 25.9868 5.59844 26.0524 5.7415 26.0843C5.88456 26.1162 6.03309 26.1134 6.17485 26.0761C7.05593 25.8781 7.79138 24.8368 8.16274 24.0742L9.41519 21.4783C9.5499 21.1093 9.78037 20.7834 10.0826 20.5345C10.3848 20.2856 10.7478 20.1228 11.1337 20.063H11.1701C11.5569 20.114 11.9238 20.2661 12.2342 20.504C12.5446 20.742 12.7878 21.0577 12.9395 21.4196L13.3691 22.2263C13.5586 22.5791 13.8201 22.8876 14.1363 23.1315C14.4526 23.3754 14.8164 23.5492 15.2041 23.6415C15.692 23.7417 16.1951 23.74 16.6823 23.6366C17.1695 23.5332 17.6304 23.3302 18.0367 23.0402L20.1847 21.5736C21.1982 20.9444 22.3628 20.6051 23.5533 20.5922C24.7439 20.5793 25.9154 20.8932 26.9421 21.5003L28.9591 22.8276C29.3677 23.1234 29.8354 23.3258 30.3297 23.4208C30.8239 23.5158 31.3328 23.501 31.8208 23.3776C32.1463 23.277 32.4456 23.1052 32.6974 22.8745C32.9492 22.6437 33.1471 22.3598 33.2771 22.043C33.5029 21.5003 34.0053 20.4884 34.7335 20.525C35.2578 20.525 35.5345 21.1483 35.6655 21.5883C35.7602 21.889 36.0951 22.8422 36.5029 22.8716C36.685 22.8716 36.8233 22.6443 36.8961 22.5049C36.9695 22.3337 37.0861 22.1848 37.2343 22.0729C37.3824 21.961 37.557 21.89 37.7408 21.867C38.138 21.8782 38.5273 21.9805 38.8794 22.166C39.2314 22.3515 39.5368 22.6154 39.7724 22.9376C40.2675 23.5169 41.753 24.7122 42.554 24.1255C43.5734 23.3922 46.6754 24.4262 47.7021 24.8588L49.9958 25.8634C50.2725 25.9881 50.6002 26.1201 50.9424 26.2521C50.5274 26.0541 50.156 25.8561 49.8429 25.6801L47.5492 24.4042C46.7118 23.9349 43.6462 22.5856 42.7797 23.3995C42.6604 23.505 42.52 23.5832 42.3679 23.6287C42.2158 23.6743 42.0557 23.6862 41.8986 23.6635C40.9374 23.5535 40.0127 22.5636 39.503 21.801C39.1826 21.3243 38.4835 20.4884 37.8282 20.569C37.6831 20.6001 37.5495 20.6716 37.4427 20.7753C37.3358 20.879 37.26 21.0108 37.2238 21.1557C37.1073 21.4636 36.8816 21.889 36.4956 21.889C35.8257 21.845 35.4544 20.4224 35.3378 19.9384C35.2723 19.6817 35.0539 18.8898 34.7116 18.8751C34.2165 18.8751 33.7213 20.2097 33.6048 20.5617C33.4791 21.0342 33.2381 21.4676 32.9036 21.8224C32.5691 22.1771 32.1518 22.442 31.6897 22.5929C31.1654 22.7048 30.622 22.6872 30.1059 22.5416C29.5899 22.396 29.1164 22.1268 28.7261 21.757L26.7091 20.0484C25.8087 19.328 24.6894 18.942 23.5396 18.9554C22.3897 18.9687 21.2795 19.3806 20.3959 20.1217L18.2114 22.021C17.832 22.3932 17.3696 22.6687 16.8629 22.8243C16.3562 22.98 15.8199 23.0112 15.2988 22.9156C14.785 22.7746 14.3121 22.5121 13.9194 22.1499C13.5268 21.7876 13.2258 21.3361 13.0414 20.833L12.6191 19.7991C12.3934 19.2418 11.8909 18.2738 11.1628 18.2738C10.4346 18.2738 9.96131 19.2931 9.75742 19.8504L8.4977 23.1942C8.13362 24.1548 7.29623 25.7901 6.17485 26.0174C5.98036 26.0604 5.77802 26.0504 5.58862 25.9886C5.39922 25.9267 5.22959 25.8152 5.09717 25.6654C4.92704 25.4822 4.7204 25.3371 4.49077 25.2398C4.26114 25.1425 4.01369 25.0951 3.76463 25.1008C3.46212 25.1166 3.16597 25.1943 2.89429 25.3292C2.62261 25.4641 2.3811 25.6533 2.18451 25.8854C2.64604 25.5507 3.20069 25.3712 3.76945 25.3725C4.3382 25.3739 4.89203 25.5559 5.35203 25.8928V25.8928Z" fill="white"/>
<path d="M49.9884 29.1999L47.6874 29.9332C46.6461 30.2559 43.5805 30.9892 42.5902 30.4685C41.8184 30.0652 40.4057 30.8132 39.765 31.3118C39.1931 31.8218 38.4452 32.0851 37.6824 32.0451C37.5305 32.0275 37.3839 31.9779 37.2522 31.8996C37.1205 31.8212 37.0066 31.7159 36.9178 31.5905C36.8773 31.5135 36.8164 31.4495 36.7418 31.4055C36.6672 31.3614 36.5819 31.3392 36.4955 31.3411C36.1168 31.3411 35.7673 31.9278 35.6727 32.2358C35.606 32.4353 35.4856 32.6123 35.3248 32.7469C35.1641 32.8816 34.9694 32.9686 34.7625 32.9984C34.1217 33.0424 33.5828 32.4044 33.3061 31.9058C32.476 30.5052 30.1823 30.7765 28.9371 31.3558L26.9201 32.3091C24.7637 33.1849 22.3514 33.1691 20.2064 32.2651L18.0584 31.2238C16.6748 30.5418 14.4175 30.4392 13.3544 31.8031L12.9248 32.3751C12.7278 32.664 12.4666 32.9026 12.162 33.0719C11.8573 33.2412 11.5176 33.3366 11.1699 33.3504H11.1189C10.7835 33.3259 10.4586 33.2214 10.1711 33.0454C9.88369 32.8695 9.64199 32.6271 9.46601 32.3384L8.21357 30.4759C7.67473 29.6912 6.35675 28.6059 5.36645 29.1926C4.84257 29.4508 4.26364 29.5751 3.68075 29.5546C3.09786 29.5342 2.52893 29.3695 2.02417 29.0753C2.08242 29.1266 2.14796 29.1706 2.19893 29.2219C2.59371 29.5712 3.09243 29.7787 3.6169 29.8119C4.14137 29.8451 4.66194 29.702 5.09703 29.4052C5.25152 29.2782 5.43348 29.1895 5.62824 29.1462C5.82301 29.1029 6.02515 29.1062 6.2184 29.1559C7.21599 29.3686 8.02425 30.4685 8.44658 31.3558L9.70631 33.9517C9.96845 34.5017 10.4345 35.1543 11.1117 35.169C11.7889 35.1836 12.3059 34.5383 12.568 33.9957L13.0049 33.189C13.2173 32.793 13.5108 32.447 13.8661 32.1739C14.2214 31.9009 14.6303 31.707 15.0656 31.6051C15.6054 31.4874 16.1638 31.4853 16.7045 31.599C17.2452 31.7127 17.756 31.9397 18.204 32.2651L20.3885 33.7317C21.3415 34.3182 22.4347 34.6334 23.5516 34.6437C24.6685 34.6541 25.7672 34.3591 26.7308 33.7904L28.7551 32.4631C29.2059 32.1386 29.7217 31.9174 30.2663 31.8148C30.811 31.7122 31.3713 31.7307 31.9081 31.8691C32.2856 31.9828 32.6334 32.1792 32.9267 32.4441C33.2201 32.7091 33.4516 33.0361 33.6047 33.4017C33.7576 33.7684 34.2382 34.729 34.7261 34.707C35.061 34.707 35.2649 34.1643 35.345 33.893C35.4979 33.4017 35.8693 32.4264 36.4882 32.3604C36.6522 32.3689 36.8097 32.4275 36.9397 32.5284C37.0698 32.6292 37.1663 32.7676 37.2164 32.9251C37.265 33.0438 37.3437 33.1477 37.4446 33.2262C37.5456 33.3047 37.6652 33.3551 37.7916 33.3724C38.1304 33.3485 38.4598 33.2501 38.7567 33.0841C39.0536 32.9182 39.3108 32.6886 39.5101 32.4118C40.1509 31.6785 41.7747 30.4465 42.765 31.1725C43.6388 31.8031 46.6825 30.7692 47.5636 30.3879L49.8646 29.3832C50.2141 29.2292 50.5928 29.0606 51.0806 28.8993C50.6874 28.9873 50.3161 29.0973 49.9884 29.1999Z" fill="white"/>
<path d="M42.5612 31.4438C41.7602 30.8645 40.2748 32.0598 39.7796 32.6318C39.5467 32.9607 39.2416 33.2311 38.888 33.4219C38.5343 33.6127 38.1417 33.7187 37.7408 33.7317C37.5583 33.7075 37.3852 33.6359 37.2384 33.5241C37.0916 33.4123 36.9762 33.264 36.9034 33.0937C36.8306 32.9544 36.6922 32.7124 36.5102 32.7271C36.1024 32.7271 35.782 33.7097 35.6728 34.0104C35.5417 34.4503 35.265 35.0443 34.7407 35.0736C34.0126 35.1103 33.5028 34.0983 33.2844 33.5557C33.1544 33.2389 32.9564 32.9549 32.7046 32.7242C32.4529 32.4934 32.1535 32.3217 31.8281 32.2211C31.3399 32.0996 30.8314 32.0859 30.3375 32.1808C29.8435 32.2757 29.3758 32.4771 28.9664 32.7711L26.9421 34.069C25.9192 34.6741 24.7525 34.9882 23.5663 34.9778C22.3801 34.9675 21.2189 34.6331 20.2066 34.0104L18.0585 32.5438C17.6523 32.2538 17.1913 32.0508 16.7041 31.9474C16.2169 31.844 15.7138 31.8423 15.2259 31.9425C14.8388 32.036 14.4755 32.2104 14.1594 32.4541C13.8433 32.6979 13.5815 33.0057 13.3909 33.3577L12.9613 34.1643C12.81 34.5273 12.5671 34.844 12.2567 35.0833C11.9463 35.3225 11.5793 35.4759 11.1919 35.5283H11.1555C10.7696 35.4685 10.4066 35.3058 10.1044 35.0569C9.80219 34.808 9.57172 34.482 9.43701 34.113L8.16272 31.5318C7.79135 30.7985 7.05591 29.7279 6.17483 29.5372C6.03379 29.4971 5.88518 29.4922 5.74182 29.5228C5.59846 29.5535 5.46467 29.6189 5.352 29.7132C4.88987 30.0524 4.33279 30.2351 3.76096 30.2351C3.18913 30.2351 2.63206 30.0524 2.16992 29.7132V29.7132C2.36722 29.9487 2.61071 30.1407 2.88513 30.2769C3.15954 30.4132 3.45896 30.4909 3.7646 30.5052C4.01503 30.5109 4.26373 30.4621 4.4937 30.3621C4.72368 30.2621 4.92952 30.1133 5.09714 29.9259C5.22551 29.7792 5.39014 29.6694 5.57431 29.6076C5.75848 29.5457 5.95563 29.5341 6.1457 29.5739C7.26707 29.8012 8.10446 31.4291 8.46855 32.3898L9.72827 35.7336C9.93944 36.2982 10.4564 37.3029 11.1482 37.3175C11.8399 37.3322 12.3788 36.3422 12.6045 35.7923L13.0414 34.7583C13.2235 34.2544 13.5228 33.8016 13.9143 33.4381C14.3057 33.0745 14.778 32.8106 15.2915 32.6684C15.8126 32.5746 16.3484 32.6067 16.8548 32.7623C17.3612 32.9178 17.8237 33.1923 18.2041 33.563L20.3886 35.4696C21.2728 36.2094 22.3828 36.6205 23.5323 36.6338C24.6818 36.6472 25.8009 36.262 26.7018 35.5429L28.7188 33.8344C29.1102 33.4639 29.5849 33.1944 30.1023 33.0488C30.6196 32.9032 31.1643 32.8859 31.6897 32.9984C32.151 33.1486 32.5677 33.4124 32.9021 33.7658C33.2365 34.1192 33.478 34.5511 33.6048 35.0223C33.7213 35.3816 34.2092 36.7382 34.7116 36.7162C35.0538 36.7162 35.2723 35.9023 35.3378 35.6456C35.4543 35.1396 35.8257 33.739 36.4956 33.7024C36.8815 33.7024 37.1073 34.1057 37.2238 34.4357C37.26 34.5806 37.3358 34.7123 37.4427 34.816C37.5495 34.9197 37.683 34.9912 37.8281 35.0223C38.4835 35.103 39.1825 34.289 39.5029 33.7904C40.0126 33.0571 40.9593 32.0451 41.8986 31.9351C42.0557 31.9105 42.2163 31.9214 42.3687 31.967C42.5211 32.0127 42.6615 32.092 42.7797 32.1991C43.6462 33.0057 46.7118 31.6565 47.5492 31.1872L49.8501 29.8966C50.1633 29.7206 50.5783 29.5226 50.957 29.3246C50.6074 29.4566 50.287 29.5886 50.0031 29.7132L47.7021 30.7178C46.6826 31.1432 43.5807 32.1844 42.5612 31.4438Z" fill="white"/>
<path d="M49.9666 28.7086L47.6656 29.134C46.5733 29.3393 43.617 29.7719 42.6121 29.4566C41.612 29.3268 40.5964 29.5058 39.6995 29.9699C39.0368 30.2999 37.5587 30.7032 36.9179 30.1459C36.8509 30.0866 36.7719 30.0427 36.6864 30.0174C36.6009 29.9921 36.5109 29.9859 36.4227 29.9992C36.262 30.0265 36.1086 30.0868 35.9721 30.1764C35.8355 30.2659 35.7187 30.3829 35.629 30.5199C35.5333 30.6563 35.4083 30.7693 35.2634 30.8505C35.1184 30.9318 34.9572 30.9792 34.7916 30.9892C34.5104 30.9955 34.231 30.9412 33.9723 30.8299C33.7136 30.7186 33.4815 30.5529 33.2916 30.3439C32.4033 29.4493 29.9639 29.7059 28.8644 30.0139L26.8474 30.5859C24.6677 31.1175 22.3935 31.1175 20.2138 30.5859L18.0657 29.9552C16.7768 29.5739 14.4249 29.4346 13.3035 30.2999L12.8666 30.6445C12.3726 31.028 11.7645 31.2321 11.1409 31.2238C10.5245 31.2215 9.92968 30.995 9.46608 30.5859L8.21363 29.4713C7.81797 29.1298 7.34879 28.8857 6.84325 28.7584C6.3377 28.6311 5.80968 28.6241 5.30098 28.738C4.20801 29.0299 3.05283 28.9813 1.98783 28.5986L1.73297 28.5107C1.87371 28.5773 2.00993 28.6533 2.14074 28.738C2.59271 29.007 3.10351 29.1597 3.62801 29.1828C4.15251 29.2058 4.67457 29.0983 5.14806 28.87C6.32041 28.1733 7.82043 29.3099 8.46121 30.2559L9.72094 32.1185C9.86766 32.3681 10.072 32.5785 10.3167 32.7317C10.5613 32.8849 10.839 32.9764 11.1263 32.9984C11.4267 32.9912 11.7211 32.9116 11.9846 32.7661C12.2482 32.6207 12.4732 32.4136 12.6409 32.1625L13.0778 31.5905C14.2137 30.1239 16.6749 30.1239 18.2113 30.9085L20.3885 31.9718C22.4349 32.8149 24.7282 32.8149 26.7745 31.9718L28.7988 31.0259C30.2115 30.3586 32.68 30.1459 33.6193 31.7152C33.8305 32.0745 34.2892 32.6611 34.7698 32.6318C34.9113 32.603 35.0424 32.536 35.1489 32.4377C35.2554 32.3395 35.3333 32.2139 35.3742 32.0745C35.5635 31.6125 35.9421 31.0112 36.4883 30.9599C36.6347 30.9536 36.78 30.9879 36.9083 31.059C37.0367 31.1301 37.1433 31.2353 37.2164 31.3632C37.2767 31.4495 37.3547 31.5216 37.4452 31.5748C37.5357 31.628 37.6365 31.6608 37.7407 31.6712C38.4071 31.6847 39.0533 31.4406 39.5466 30.9892C40.2747 30.3952 41.833 29.6179 42.7578 30.1019C43.6825 30.5859 46.6462 29.8379 47.6001 29.5446L49.8938 28.8113C50.2651 28.7013 50.6802 28.5766 51.1171 28.4593C50.7287 28.5522 50.3452 28.6353 49.9666 28.7086Z" fill="white"/>
<path d="M26.811 -2.24719e-05C19.7167 -6.70021e-05 12.9115 2.83148 7.88616 7.87436C2.86083 12.9172 0.025048 19.7603 0 26.9047C0.724099 26.6445 1.37927 26.2206 1.91507 25.6654C2.14468 25.3914 2.42828 25.1685 2.74791 25.0107C3.06754 24.8529 3.41624 24.7637 3.77189 24.7488C4.06999 24.741 4.36632 24.7971 4.64124 24.9135C4.91617 25.0298 5.1634 25.2036 5.36657 25.4234C5.45358 25.5279 5.56783 25.606 5.69646 25.6487C5.8251 25.6915 5.96303 25.6972 6.09474 25.6654C7.05592 25.4747 7.84961 23.8908 8.15544 23.0695L9.41517 19.7257C9.68459 18.9924 10.2453 17.9364 11.1409 17.9218C12.0293 17.9218 12.5972 18.9484 12.9249 19.6597L13.3545 20.6936C13.518 21.1456 13.7864 21.5518 14.1372 21.8783C14.488 22.2049 14.9112 22.4423 15.3716 22.5709C15.8413 22.6573 16.3248 22.6285 16.7811 22.4868C17.2374 22.3451 17.6531 22.0947 17.9929 21.7569L20.1774 19.8503C21.1267 19.0587 22.3182 18.6212 23.5507 18.6119C24.7832 18.6025 25.9811 19.0218 26.9421 19.799L28.9591 21.5076C29.3085 21.8351 29.7313 22.0729 30.1915 22.2006C30.6517 22.3282 31.1357 22.3421 31.6023 22.2409C32.0077 22.1028 32.3727 21.8657 32.6649 21.551C32.9572 21.2362 33.1675 20.8535 33.2771 20.437C33.4664 19.8797 34.0053 18.4791 34.7335 18.5084C35.316 18.5084 35.5781 19.3957 35.6801 19.8503C35.7529 20.1363 36.117 21.5003 36.5247 21.5296C36.6995 21.5296 36.8524 21.1703 36.9034 21.0456C36.9597 20.8371 37.0739 20.6492 37.2325 20.5037C37.3912 20.3582 37.5877 20.2613 37.799 20.2243C38.6073 20.129 39.3937 21.0089 39.7942 21.6102C40.1947 22.2115 41.1122 23.2235 41.9787 23.3188C42.0861 23.3369 42.1961 23.3304 42.3007 23.3C42.4053 23.2695 42.5018 23.2158 42.5831 23.1428C43.6171 22.1749 46.7627 23.5461 47.7603 24.1035L50.054 25.3941C51.2204 26.028 52.4384 26.5604 53.6949 26.9853C53.693 23.4347 52.9956 19.9193 51.6429 16.6404C50.2901 13.3615 48.3084 10.3835 45.8112 7.87694C43.3141 5.37035 40.3505 3.38439 37.0902 2.03275C33.8298 0.681107 30.3368 -0.00966621 26.811 -2.24719e-05V-2.24719e-05Z" fill="white"/>
<path d="M47.622 27.572L47.0904 27.5353C46.1948 27.4913 45.2919 27.4547 44.3962 27.4327C43.8239 27.3996 43.2501 27.3996 42.6778 27.4327C41.655 27.4909 40.629 27.4319 39.6195 27.2567C38.7913 27.0977 37.9432 27.0729 37.1073 27.1834C36.5475 27.3115 35.9619 27.2603 35.4325 27.0367C34.7913 26.8793 34.1185 26.9124 33.4956 27.132C32.447 27.4913 29.9931 27.374 28.8353 27.264L26.811 27.0807C24.6478 26.8864 22.4717 26.8864 20.3085 27.0807L18.1604 27.2933C16.5023 27.4852 14.8256 27.4407 13.1798 27.1614L12.7429 27.044C11.7204 26.802 10.6561 26.802 9.63364 27.044L8.37391 27.4107C7.34926 27.6861 6.28491 27.7804 5.22824 27.6893C4.18029 27.5757 3.12324 27.5757 2.07529 27.6893L1.65295 27.7407L2.07529 27.792C3.12305 27.9093 4.18049 27.9093 5.22824 27.792C6.2849 27.7046 7.34863 27.7988 8.37391 28.0706L9.63364 28.4373C10.6561 28.6793 11.7204 28.6793 12.7429 28.4373L13.1798 28.32C14.8256 28.0391 16.5028 27.9971 18.1604 28.1953L20.3085 28.408C22.4721 28.5949 24.6475 28.5949 26.811 28.408L28.8353 28.2173C29.9931 28.1073 32.4762 27.9973 33.4956 28.3493C34.1229 28.5631 34.7984 28.5885 35.4398 28.4226C35.9692 28.1991 36.5548 28.1478 37.1146 28.276C37.9505 28.3864 38.7986 28.3617 39.6267 28.2026C40.6361 28.0262 41.6626 27.9696 42.685 28.034C43.2575 28.0634 43.8311 28.0634 44.4035 28.034C45.2992 28.034 46.2021 27.9826 47.0977 27.9313H47.6293L49.9303 27.7847L51.1536 27.7113L49.9303 27.638L47.622 27.572Z" fill="white"/>
<path d="M1.98071 26.4941C2.48923 26.205 3.06008 26.0453 3.64377 26.0287C4.22746 26.0121 4.80636 26.1391 5.33027 26.3987C6.32058 26.9854 7.63855 25.9001 8.17739 25.1155L9.46625 23.2382C9.64534 22.9437 9.89251 22.6972 10.1867 22.5197C10.4808 22.3423 10.8133 22.2391 11.1556 22.2189C11.5122 22.2235 11.8626 22.3145 12.1769 22.4843C12.4912 22.6541 12.7603 22.8976 12.9614 23.1942L13.3911 23.7662C14.425 25.1301 16.7115 25.0275 18.095 24.3455L20.2431 23.2896C21.3009 22.8398 22.4364 22.6044 23.5847 22.5969C24.7329 22.5893 25.8713 22.8097 26.9349 23.2456L28.9155 24.1988C30.1607 24.7855 32.4544 25.0495 33.2845 23.6489C33.5831 23.1502 34.1219 22.5196 34.7408 22.5636C34.944 22.5897 35.1359 22.6721 35.2953 22.8016C35.4547 22.931 35.5754 23.1025 35.6438 23.2969C35.7748 23.6122 36.088 24.1548 36.4666 24.1988C36.5536 24.1993 36.6391 24.1756 36.7136 24.1303C36.7881 24.085 36.8488 24.0199 36.8889 23.9422C36.9777 23.8167 37.0916 23.7114 37.2233 23.6331C37.355 23.5548 37.5016 23.5052 37.6535 23.4875C38.4163 23.4475 39.1642 23.7109 39.7361 24.2208C40.3404 24.7195 41.7895 25.4674 42.5613 25.0715C43.5589 24.5508 46.6245 25.2768 47.6585 25.5994L49.9595 26.3327C50.2872 26.4354 50.6877 26.5454 51.059 26.6554C50.6076 26.4867 50.1852 26.3181 49.8357 26.1641L47.5347 25.1595C46.6536 24.7781 43.6099 23.7442 42.7361 24.3748C41.7458 25.1081 40.122 23.8689 39.4812 23.1356C39.283 22.8582 39.0259 22.6287 38.7287 22.4639C38.4314 22.299 38.1015 22.2028 37.7627 22.1823C37.6371 22.1989 37.518 22.2482 37.4171 22.3254C37.3162 22.4025 37.2371 22.5049 37.1875 22.6223C37.1374 22.7797 37.0409 22.9181 36.9108 23.0189C36.7808 23.1198 36.6233 23.1784 36.4593 23.1869C35.8404 23.1429 35.469 22.1456 35.3161 21.6543C35.236 21.383 35.0321 20.8623 34.6972 20.8403C34.202 20.8403 33.7287 21.779 33.5758 22.1456C33.4227 22.5112 33.1912 22.8382 32.8978 23.1032C32.6045 23.3681 32.2567 23.5645 31.8792 23.6782C31.3427 23.8157 30.7831 23.8344 30.2388 23.7331C29.6945 23.6318 29.1784 23.413 28.7262 23.0916L26.7238 21.7936C25.7605 21.2278 24.6633 20.9345 23.5482 20.9448C22.4331 20.9552 21.3415 21.2687 20.3887 21.8523L18.2406 23.3189C17.7957 23.639 17.2895 23.8624 16.7542 23.9747C16.2189 24.0871 15.6662 24.086 15.1314 23.9715C14.6963 23.8667 14.2879 23.6708 13.9329 23.3967C13.5779 23.1225 13.2841 22.7762 13.0707 22.3803L12.6338 21.5736C12.3425 21.031 11.8328 20.3857 11.1774 20.4004C10.5221 20.415 10.0342 21.0677 9.77208 21.6176L8.47594 24.1988C8.05361 25.0715 7.24534 26.1714 6.24776 26.3987C6.05118 26.4535 5.84453 26.4609 5.64462 26.4201C5.4447 26.3793 5.25717 26.2916 5.09726 26.1641C4.66081 25.8637 4.13728 25.7186 3.60965 25.7518C3.08202 25.785 2.5805 25.9946 2.1846 26.3474C2.12016 26.4011 2.05203 26.4501 1.98071 26.4941V26.4941Z" fill="white"/>
<path d="M1.98783 26.9487C3.0581 26.5816 4.21434 26.5535 5.30098 26.868C5.8097 26.9813 6.33759 26.974 6.84304 26.8467C7.34849 26.7195 7.81768 26.4758 8.21364 26.1347L9.46608 24.9835C9.95501 24.5963 10.5589 24.3858 11.1809 24.3858C11.8029 24.3858 12.4068 24.5963 12.8957 24.9835L13.3326 25.3281C14.4249 26.1934 16.806 26.0614 18.0948 25.6728L20.2429 25.0421C22.423 24.5141 24.6964 24.5141 26.8765 25.0421L28.8935 25.6141C29.993 25.9221 32.4324 26.1787 33.3208 25.2841C33.5118 25.0766 33.7441 24.9119 34.0026 24.8007C34.261 24.6895 34.5398 24.6344 34.8208 24.6388C34.9864 24.6488 35.1476 24.6962 35.2925 24.7775C35.4375 24.8587 35.5624 24.9717 35.6582 25.1081C35.7465 25.2471 35.8627 25.3659 35.9994 25.4568C36.1362 25.5478 36.2903 25.6088 36.4519 25.6361C36.5405 25.648 36.6307 25.6404 36.7162 25.6138C36.8017 25.5872 36.8804 25.5423 36.947 25.4821C37.5878 24.9175 39.066 25.3281 39.7286 25.6581C40.6243 26.1258 41.6411 26.305 42.6413 26.1714C43.6461 25.8561 46.6025 26.2887 47.6947 26.4941L49.9957 26.9267L51.1389 27.1174C50.6948 27 50.2797 26.8827 49.9083 26.7654L47.6146 26.0321C46.6025 25.6654 43.617 24.9761 42.7432 25.4308C41.8694 25.8854 40.2529 25.1375 39.532 24.5435C39.0388 24.092 38.3925 23.848 37.7261 23.8615C37.6219 23.8719 37.5211 23.9047 37.4306 23.9579C37.3401 24.011 37.2621 24.0832 37.2019 24.1695C37.1294 24.2979 37.0229 24.4036 36.8944 24.4748C36.7659 24.546 36.6202 24.5799 36.4737 24.5728C35.9276 24.5215 35.5489 23.9202 35.3596 23.4655C35.2504 23.2016 35.0611 22.9229 34.7552 22.9082C34.2746 22.9082 33.8159 23.4582 33.5975 23.8249C32.6654 25.3868 30.1969 25.1741 28.7843 24.5142L26.76 23.5609C24.7087 22.7279 22.4138 22.7437 20.374 23.6049L18.2041 24.6608C16.6676 25.3941 14.2064 25.4821 13.1069 23.9789L12.67 23.4069C12.5023 23.1557 12.2773 22.9487 12.0138 22.8032C11.7502 22.6578 11.4559 22.5781 11.1554 22.5709C10.8616 22.5893 10.5768 22.6806 10.3265 22.8367C10.0762 22.9928 9.86818 23.2088 9.72094 23.4655L8.46121 25.3208C7.82043 26.2741 6.32041 27.4033 5.14806 26.714C4.67516 26.4846 4.15342 26.3759 3.62892 26.3976C3.10442 26.4194 2.59332 26.5709 2.14074 26.8387C2.00903 26.9219 1.8729 26.9978 1.73297 27.066L1.98783 26.9487Z" fill="white"/>
<path d="M53.5782 28.5986C52.3489 29.0182 51.1577 29.5432 50.0175 30.1679L47.7238 31.4585C46.7262 32.0158 43.5805 33.387 42.5465 32.4191C42.4634 32.35 42.3661 32.3003 42.2615 32.2737C42.157 32.247 42.0479 32.2441 41.9422 32.2651C41.1048 32.3604 40.231 33.3137 39.7577 33.9737C39.2844 34.6336 38.5708 35.4403 37.7625 35.3596C37.552 35.3232 37.3562 35.2273 37.1976 35.0832C37.0391 34.9392 36.9244 34.7527 36.8669 34.5456C36.8159 34.4136 36.663 34.047 36.4882 34.0543C36.0877 34.0543 35.7164 35.4549 35.6508 35.7336C35.5416 36.1882 35.2795 37.0462 34.6969 37.0755C33.9688 37.0755 33.4226 35.7043 33.2406 35.1469C33.1322 34.7299 32.9223 34.3465 32.6299 34.0316C32.3375 33.7166 31.9718 33.48 31.5658 33.343C31.0992 33.2419 30.6151 33.2557 30.1549 33.3834C29.6947 33.511 29.2719 33.7488 28.9226 34.0763L26.942 35.8069C25.9785 36.581 24.7792 36.9964 23.5467 36.9831C22.3142 36.9697 21.1241 36.5284 20.1773 35.7336L18.0292 33.827C17.6882 33.4859 17.2707 33.2325 16.8118 33.0882C16.353 32.944 15.8664 32.9132 15.3933 32.9984C14.9329 33.127 14.5098 33.3644 14.1589 33.6909C13.8081 34.0174 13.5398 34.4236 13.3763 34.8756L12.9466 35.9316C12.6481 36.6649 12.051 37.6768 11.1626 37.6768C10.2597 37.6768 9.70631 36.5989 9.4296 35.8656L8.15532 32.5144C7.84949 31.7004 7.05579 30.1092 6.09461 29.9185C5.96223 29.8875 5.82386 29.8944 5.69517 29.9385C5.56649 29.9825 5.45262 30.062 5.36645 30.1679C5.16291 30.3867 4.91543 30.5594 4.64048 30.6745C4.36552 30.7895 4.06938 30.8443 3.77176 30.8352C3.41611 30.8202 3.06742 30.731 2.74778 30.5732C2.42815 30.4154 2.14455 30.1925 1.91494 29.9185C1.39147 29.3744 0.754875 28.9537 0.0508423 28.6866C0.467791 35.5571 3.47471 42.0079 8.45696 46.7203C13.4392 51.4326 20.0205 54.0508 26.8557 54.0396C33.6909 54.0283 40.2637 51.3885 45.2306 46.6598C50.1976 41.9311 53.1836 35.4705 53.5782 28.5986V28.5986Z" fill="white"/>
<path d="M2.11167 28.2906C3.10455 28.6283 4.17553 28.6565 5.18453 28.3713C5.75295 28.2427 6.34353 28.2514 6.90798 28.3967C7.47243 28.542 7.99471 28.8197 8.43214 29.2072L9.69187 30.3218C10.1182 30.6572 10.6436 30.8394 11.1846 30.8394C11.7256 30.8394 12.251 30.6572 12.6773 30.3218L13.107 29.9919C14.3011 29.0459 16.8133 29.1779 18.2041 29.5886L20.3886 30.2192C22.5065 30.7325 24.715 30.7325 26.8329 30.2192L28.8499 29.6472C30.0805 29.3026 32.6291 29.0679 33.6194 30.0652C33.7742 30.2368 33.9631 30.3738 34.1738 30.4672C34.3846 30.5607 34.6124 30.6086 34.8427 30.6078C34.9582 30.6045 35.0713 30.5735 35.1726 30.5174C35.2739 30.4613 35.3605 30.3817 35.4252 30.2852C35.5383 30.118 35.6836 29.9753 35.8524 29.8658C36.0213 29.7562 36.2103 29.6818 36.4082 29.6472C36.5461 29.6277 36.6865 29.6386 36.8198 29.6791C36.953 29.7196 37.076 29.7888 37.1801 29.8819C37.6825 30.3292 39.0587 29.8819 39.5757 29.6545C40.5447 29.1546 41.6431 28.9677 42.7214 29.1192C43.6462 29.4126 46.6244 28.9726 47.6147 28.7893L49.9084 28.3566L51.2409 28.1366L49.9521 28.21L47.6511 28.3566H47.0977C46.1948 28.4079 45.2918 28.4446 44.3889 28.4593C43.8093 28.4922 43.2282 28.4922 42.6486 28.4593C41.6549 28.4047 40.6582 28.4637 39.6777 28.6353C38.7988 28.8046 37.898 28.8244 37.0126 28.6939C36.5253 28.5845 36.0163 28.6306 35.5563 28.8259C34.8386 29.0297 34.0761 29.0067 33.3718 28.7599C32.3742 28.4299 29.9567 28.5399 28.8499 28.6499L26.8329 28.8406C24.6526 29.0336 22.4597 29.0336 20.2794 28.8406L18.1167 28.5986C16.5004 28.4058 14.8651 28.4453 13.2599 28.7159L12.8303 28.8333C12.2841 28.9638 11.724 29.0254 11.1628 29.0166C10.6107 29.0265 10.0597 28.9624 9.52439 28.8259L8.27195 28.4519C7.28924 28.1923 6.26981 28.103 5.25734 28.188C4.18281 28.3053 3.09883 28.3053 2.02429 28.188L1.63837 28.1366L2.11167 28.2906Z" fill="white"/>
<path d="M2.02429 27.3887C3.09864 27.2679 4.183 27.2679 5.25734 27.3887C6.26939 27.4803 7.28954 27.3935 8.27195 27.1321L9.52439 26.7654C10.6112 26.5051 11.7435 26.5051 12.8303 26.7654L13.2599 26.8754C14.8652 27.1445 16.4999 27.1864 18.1167 27.0001L20.2648 26.7874C22.4451 26.5944 24.638 26.5944 26.8183 26.7874L28.8353 26.9781C29.9421 27.0807 32.3596 27.1907 33.3572 26.8607C34.0612 26.6106 34.8255 26.5901 35.5417 26.8021C36.0025 26.9949 36.5115 27.0385 36.998 26.9267C37.8834 26.7962 38.7843 26.8161 39.6631 26.9854C40.6432 27.1606 41.6403 27.2196 42.634 27.1614C43.2137 27.1285 43.7947 27.1285 44.3744 27.1614C45.2773 27.1614 46.1875 27.2127 47.0831 27.264H47.6365L49.9375 27.4034L51.2264 27.484L49.8938 27.2567L47.6001 26.8241C46.6098 26.6407 43.6316 26.2081 42.7069 26.4941C41.6286 26.6456 40.5301 26.4587 39.5612 25.9588C39.0442 25.7021 37.668 25.2841 37.1655 25.7315C37.0614 25.8245 36.9385 25.8937 36.8052 25.9342C36.6719 25.9747 36.5315 25.9856 36.3937 25.9661C36.1837 25.9334 35.9828 25.8572 35.8036 25.7424C35.6243 25.6275 35.4707 25.4765 35.3524 25.2988C35.2884 25.2033 35.203 25.1243 35.1031 25.0683C35.0031 25.0122 34.8915 24.9807 34.7771 24.9762C34.5472 24.9772 34.3199 25.0259 34.1094 25.1192C33.8989 25.2126 33.7098 25.3486 33.5538 25.5188C32.5635 26.5161 30.0149 26.2521 28.7843 25.9368L26.7673 25.3721C24.6499 24.8552 22.4405 24.8552 20.3231 25.3721L18.1386 26.0101C16.7696 26.4134 14.2575 26.5454 13.0414 25.5995L12.6118 25.2548C12.1855 24.9194 11.66 24.7372 11.1191 24.7372C10.5781 24.7372 10.0526 24.9194 9.62633 25.2548L8.43214 26.3988C7.99471 26.7863 7.47243 27.064 6.90798 27.2093C6.34353 27.3546 5.75295 27.3633 5.18453 27.2347C4.17553 26.9495 3.10455 26.9777 2.11167 27.3154L1.63837 27.4694L2.02429 27.3887Z" fill="white"/>
</g>
<defs>
<clipPath id="clip0">
<rect width="190" height="54" fill="white"/>
</clipPath>
</defs>
</svg>
